<svg width="190" height="38" viewBox="0 0 190 38" fill="none" xmlns="http://www.w3.org/2000/svg">
<g clip-path="url(#clip0_220_3988)">
<path d="M0.5225 18.24C0.5225 13.926 0.52361 10.7431 0.851739 8.3025C1.17785 5.87694 1.81832 4.26298 3.04065 3.04065C4.26298 1.81832 5.87694 1.17785 8.3025 0.851739C10.7431 0.52361 13.926 0.5225 18.24 0.5225H19.76C24.074 0.5225 27.2569 0.52361 29.6975 0.851739C32.1231 1.17785 33.737 1.81832 34.9594 3.04065C36.1817 4.26298 36.8222 5.87694 37.1483 8.3025C37.4764 10.7431 37.4775 13.926 37.4775 18.24V19.76C37.4775 24.074 37.4764 27.2569 37.1483 29.6975C36.8222 32.1231 36.1817 33.737 34.9594 34.9594C33.737 36.1817 32.1231 36.8222 29.6975 37.1483C27.2569 37.4764 24.074 37.4775 19.76 37.4775H18.24C13.926 37.4775 10.7431 37.4764 8.3025 37.1483C5.87694 36.8222 4.26298 36.1817 3.04065 34.9594C1.81832 33.737 1.17785 32.1231 0.851739 29.6975C0.52361 27.2569 0.5225 24.074 0.5225 19.76V18.24Z" stroke="white" stroke-width="1.045"/>
<mask id="mask0_220_3988" style="mask-type:alpha" maskUnits="userSpaceOnUse" x="0" y="0" width="38" height="38">
<path d="M0 18.24C0 9.64158 0 5.34237 2.67119 2.67119C5.34237 0 9.64158 0 18.24 0H19.76C28.3584 0 32.6576 0 35.3288 2.67119C38 5.34237 38 9.64158 38 18.24V19.76C38 28.3584 38 32.6576 35.3288 35.3288C32.6576 38 28.3584 38 19.76 38H18.24C9.64158 38 5.34237 38 2.67119 35.3288C0 32.6576 0 28.3584 0 19.76V18.24Z" fill="#AEB7C2"/>
</mask>
<g mask="url(#mask0_220_3988)">
<path fill-rule="evenodd" clip-rule="evenodd" d="M15.7701 11.6242C18.8652 9.4956 21.6218 7.59985 25.08 7.59985C30.1948 7.59985 34.6648 11.2443 37.0592 13.1965L37.0593 13.1966C37.4222 13.4924 37.7374 13.7494 38 13.949V37.9999H0L0.038 17.4552C7.29148 17.4552 11.8082 14.3489 15.7701 11.6242ZM31.16 17.6699C30.2208 17.6699 29.45 18.4312 29.45 19.3704V26.2294C29.45 27.1685 30.2208 27.9299 31.16 27.9299C32.0991 27.9299 32.87 27.1685 32.87 26.2294V19.3704C32.87 18.4312 32.0991 17.6699 31.16 17.6699ZM23.37 15.0007C23.37 14.0616 24.1409 13.3002 25.08 13.3002C26.0192 13.3002 26.79 14.0616 26.79 15.0007V30.5997C26.79 31.5389 26.0192 32.3002 25.08 32.3002C24.1409 32.3002 23.37 31.5389 23.37 30.5997V15.0007ZM19.0001 17.6699C18.0609 17.6699 17.2901 18.4312 17.2901 19.3704V26.2294C17.2901 27.1685 18.0609 27.9299 19.0001 27.9299C19.9392 27.9299 20.7101 27.1685 20.7101 26.2294V19.3704C20.7101 18.4312 19.9392 17.6699 19.0001 17.6699ZM11.2099 21.8405C11.2099 20.9013 11.9808 20.14 12.9199 20.14C13.8591 20.14 14.6299 20.9013 14.6299 21.8405V23.7595C14.6299 24.6986 13.8591 25.46 12.9199 25.46C11.9808 25.46 11.2099 24.6986 11.2099 23.7595V21.8405ZM6.83998 20.14C5.90083 20.14 5.12998 20.9013 5.12998 21.8405V23.7595C5.12998 24.6986 5.90083 25.46 6.83998 25.46C7.77915 25.46 8.54998 24.6986 8.54998 23.7595V21.8405C8.54998 20.9013 7.77915 20.14 6.83998 20.14Z" fill="white"/>
</g>
<g clip-path="url(#clip1_220_3988)">
<path d="M58.9881 28.6997H54.2466L47.5 9.5H50.9952L56.387 25.3227H56.9289L62.5104 9.5H65.9514L58.9881 28.6997Z" fill="white"/>
<path d="M74.9786 18.7594L83.7573 28.6997H79.4763L72.3233 20.4752H71.5105V28.6997H68.2591V9.5H71.5105V17.3161H72.2962L79.0699 9.5H83.0799L74.9786 18.7594Z" fill="white"/>
<path d="M94.6608 28.6997H91.4907V9.5H96.5845L101.787 24.0155H102.22L107.531 9.5H112.516V28.6997H109.346V13.8574H108.913L103.467 28.6997H100.432L95.0943 13.8574H94.6608V28.6997Z" fill="white"/>
<path d="M126.328 14.5382H129.499L123.727 30.4699C123.24 31.8134 122.607 32.7848 121.831 33.3839C121.072 33.983 120.052 34.2826 118.769 34.2826H116.629L116.358 31.4231H118.986C119.51 31.4231 119.907 31.3051 120.178 31.069C120.467 30.8512 120.711 30.4608 120.91 29.898L121.072 29.4623L114.813 14.5382H118.146L122.291 24.7508H122.725L126.328 14.5382Z" fill="white"/>
<path d="M139.3 21.4828C140.076 21.7188 140.718 22.1273 141.223 22.7083C141.747 23.2711 142.009 23.9701 142.009 24.8053C142.009 25.586 141.765 26.2941 141.277 26.9295C140.808 27.5468 140.121 28.0461 139.218 28.4274C138.333 28.7905 137.313 28.9721 136.157 28.9721C134.621 28.9721 133.303 28.6089 132.201 27.8827C131.117 27.1565 130.404 26.1942 130.06 24.9959L132.932 24.5057C133.239 25.1412 133.646 25.6042 134.152 25.8947C134.657 26.167 135.317 26.3032 136.13 26.3032C137.015 26.3032 137.692 26.1488 138.162 25.8402C138.649 25.5315 138.893 25.1049 138.893 24.5602C138.893 23.489 137.972 22.9534 136.13 22.9534H134.368V20.2301H136.13C136.96 20.2301 137.593 20.0939 138.026 19.8216C138.46 19.5311 138.676 19.1407 138.676 18.6505C138.676 18.124 138.451 17.7064 137.999 17.3978C137.547 17.0891 136.988 16.9348 136.319 16.9348C135.651 16.9348 135.046 17.0982 134.504 17.425C133.98 17.7518 133.574 18.1966 133.285 18.7594L130.413 18.2692C130.828 16.962 131.569 15.9725 132.634 15.3008C133.718 14.6108 134.982 14.2659 136.428 14.2659C137.457 14.2659 138.378 14.4384 139.191 14.7833C140.004 15.1283 140.636 15.6094 141.088 16.2267C141.557 16.844 141.792 17.543 141.792 18.3237C141.792 19.1044 141.557 19.7762 141.088 20.339C140.636 20.9018 140.04 21.2831 139.3 21.4828Z" fill="white"/>
<path d="M144.986 28.6997V14.5382H148.102V18.5688H150.296C151.416 18.5688 152.41 18.7867 153.277 19.2224C154.144 19.64 154.821 20.2391 155.309 21.0198C155.796 21.7824 156.04 22.6538 156.04 23.6343C156.04 24.6147 155.796 25.4952 155.309 26.2759C154.821 27.0385 154.135 27.6376 153.25 28.0733C152.382 28.4909 151.398 28.6997 150.296 28.6997H144.986ZM160.836 28.6997H157.72V14.5382H160.836V28.6997ZM150.296 25.9764C151.073 25.9764 151.705 25.7585 152.193 25.3227C152.681 24.887 152.924 24.3242 152.924 23.6343C152.924 22.9443 152.681 22.3815 152.193 21.9458C151.705 21.51 151.073 21.2922 150.296 21.2922H148.102V25.9764H150.296Z" fill="white"/>
<path d="M177.197 28.6997H173.106L168.229 23.0624H167.47V28.6997H164.354V14.5382H167.47V20.0394H168.229L172.943 14.5382H176.655L170.721 21.3466L177.197 28.6997Z" fill="white"/>
<path d="M184.175 14.2659C185.981 14.2659 187.399 14.8378 188.429 15.9816C189.476 17.1073 190 18.6959 190 20.7475V28.6997H187.697L187.047 26.4666C186.649 27.1383 186.062 27.7284 185.286 28.2367C184.509 28.7269 183.588 28.9721 182.522 28.9721C181.583 28.9721 180.734 28.7814 179.975 28.4001C179.234 28.0189 178.656 27.4833 178.241 26.7934C177.825 26.1034 177.618 25.3227 177.618 24.4513C177.618 23.1077 178.142 22.0366 179.189 21.2377C180.255 20.4207 181.799 20.0122 183.822 20.0122H186.857C186.785 19.0681 186.496 18.3237 185.99 17.779C185.502 17.2162 184.843 16.9348 184.012 16.9348C183.344 16.9348 182.766 17.0982 182.278 17.425C181.79 17.7518 181.429 18.1512 181.194 18.6233L178.322 18.1331C178.665 16.9348 179.37 15.9907 180.436 15.3008C181.519 14.6108 182.766 14.2659 184.175 14.2659ZM183.253 26.3304C184.337 26.3304 185.213 25.9764 185.882 25.2683C186.55 24.5602 186.884 23.6252 186.884 22.4632H183.931C181.817 22.4632 180.761 23.0805 180.761 24.3151C180.761 24.9324 180.987 25.4226 181.438 25.7857C181.89 26.1488 182.495 26.3304 183.253 26.3304Z" fill="white"/>
</g>
</g>
<defs>
<clipPath id="clip0_220_3988">
<rect width="190" height="38" fill="white"/>
</clipPath>
<clipPath id="clip1_220_3988">
<rect width="169.417" height="34.8333" fill="white" transform="translate(47.5)"/>
</clipPath>
</defs>
</svg>
