<?xml version="1.0" encoding="UTF-8" standalone="no"?>
<!-- Created with Inkscape (http://www.inkscape.org/) -->

<svg
   version="1.1"
   id="svg1"
   width="2224.8677"
   height="386.61163"
   viewBox="0 0 2224.8677 386.61163"
   sodipodi:docname="logo.svg"
   inkscape:version="1.4.3 (0d15f75042, 2025-12-25)"
   xmlns:inkscape="http://www.inkscape.org/namespaces/inkscape"
   xmlns:sodipodi="http://sodipodi.sourceforge.net/DTD/sodipodi-0.dtd"
   xmlns="http://www.w3.org/2000/svg"
   xmlns:svg="http://www.w3.org/2000/svg">
  <defs
     id="defs1" />
  <sodipodi:namedview
     id="namedview1"
     pagecolor="#505050"
     bordercolor="#ffffff"
     borderopacity="1"
     inkscape:showpageshadow="0"
     inkscape:pageopacity="0"
     inkscape:pagecheckerboard="1"
     inkscape:deskcolor="#505050"
     inkscape:zoom="0.20174289"
     inkscape:cx="1107.8457"
     inkscape:cy="-114.0065"
     inkscape:window-width="1920"
     inkscape:window-height="1043"
     inkscape:window-x="0"
     inkscape:window-y="0"
     inkscape:window-maximized="1"
     inkscape:current-layer="g1" />
  <g
     inkscape:groupmode="layer"
     inkscape:label="Image"
     id="g1"
     transform="translate(-66.55184,-361.2905)">
    <path
       style="fill:#ffffff"
       d="m 88.776296,746.90215 c 0.0128,-0.55 10.21278,-14.12937 22.666664,-30.17638 12.45389,-16.04701 22.64343,-29.66041 22.64343,-30.25199 0,-0.59159 -5.08299,-5.40377 -11.29554,-10.69374 -32.826104,-27.95136 -50.980784,-62.74932 -55.405314,-106.19803 -1.56122,-15.3311 -0.98108,-27.51147 2.17566,-45.67986 12.76553,-73.47093 77.773194,-127.23601 172.027454,-142.27663 10.55277,-1.68395 22.29821,-2.30581 43.1644,-2.28532 30.80013,0.0302 50.30006,2.45395 73.11991,9.08834 l 10.50334,3.05362 11.85504,-15.06438 11.85504,-15.06437 47.07869,-0.059 c 36.60712,-0.0458 46.85603,0.3013 46.07767,1.56072 -0.55056,0.89082 -11.71907,15.30171 -24.8189,32.02419 l -23.81789,30.40451 4.40688,3.61887 c 24.34072,19.98827 42.68813,45.26478 52.20206,71.91676 5.77962,16.19081 8.0582,31.09813 8.11368,53.08266 0.0536,21.22378 -1.6596,34.0829 -6.53832,49.07717 -1.6244,4.99245 -2.21852,8.29245 -1.32026,7.33334 0.89826,-0.95912 16.63707,-20.94384 34.97513,-44.41051 29.14746,-37.29913 72.85117,-92.85351 127.18047,-161.66667 l 16.05355,-20.33334 h 38.53695 38.53695 l 0.0553,68.33334 0.0553,68.33333 3.68781,-14 c 20.22175,-76.76754 91.14877,-127.95106 177.36377,-127.99214 63.76192,-0.0304 120.08798,28.242 152.34648,76.46909 13.2698,19.83855 18.8239,32.5088 25.2154,57.52305 l 3.7475,14.66667 0.097,-71.66667 0.098,-71.66667 h 75.9317 c 84.2972,0 97.7846,0.90979 119.0353,8.02943 40.2195,13.47475 66.3487,39.30929 75.6397,74.78653 l 2.5798,9.85071 0.073,-46.33333 0.073,-46.33334 h 41.3251 41.3251 l 0.3416,102.09884 0.3416,102.09884 32.05,-42.43217 c 17.6275,-23.33769 52.3574,-69.32239 77.1774,-102.18822 l 45.1275,-59.75605 82.8225,0.56781 c 91.8568,0.62975 94.2326,0.82864 123.2825,10.32043 58.5422,19.12807 100.303,63.84157 112.0357,119.95719 l 2.6484,12.66667 0.095,-71.66667 0.095,-71.66667 39,0.0468 39,0.0468 24.9201,31.61988 c 33.1323,42.03993 72.414,91.6569 166.6619,210.51174 43.1299,54.39052 78.418,99.24052 78.418,99.66667 0,0.42614 -22.3765,0.77481 -49.7256,0.77481 h -49.7255 l -17.9411,-22.94914 c -9.8677,-12.62203 -19.6533,-24.92203 -21.7459,-27.33334 l -3.8048,-4.38419 h -61.8619 -61.8619 v 27.33333 27.33334 h -40.6666 -40.6667 l -0.1253,-73 c -0.1124,-65.5215 -0.312,-72.06047 -1.9475,-63.82893 -13.261,66.74249 -64.7467,117.12811 -134.3502,131.47959 -22.7303,4.68674 -36.791,5.34934 -113.5164,5.34934 h -75.3778 l -0.3414,-104.90788 -0.3414,-104.90787 -42.0732,55.24121 c -23.1403,30.38266 -59.0738,77.5912 -79.8521,104.90787 l -37.7789,49.66667 h -36.4812 -36.4813 l -0.1203,-99.66667 c -0.1177,-97.48541 -0.1715,-99.47699 -2.4563,-91 -11.4114,42.33718 -41.4333,69.96193 -88.4478,81.38553 -11.8184,2.87165 -53.0682,6.26451 -58.3987,4.80339 -2.2478,-0.61613 -7.2183,-6.71693 -16.1908,-19.87233 -7.121,-10.44079 -15.971,-23.16677 -19.6667,-28.27994 l -6.7193,-9.29668 v 80.96335 80.96335 h -40.6667 -40.6667 l -0.098,-72.33334 -0.097,-72.33333 -3.7475,14.66667 c -6.7097,26.25951 -14.7594,43.90106 -28.5922,62.66211 -26.1037,35.40375 -63.8094,59.18785 -109.21406,68.89043 -18.2417,3.89809 -57.78137,4.25347 -76.91784,0.69132 -17.10593,-3.18417 -37.54666,-10.19549 -53.1203,-18.22065 -44.39984,-22.87944 -78.52084,-66.63656 -88.91321,-114.02321 -1.53512,-6.99977 -1.76774,0.62943 -1.86048,61.01955 l -0.106,69.01955 -40.33334,-0.35288 -40.33333,-0.35289 -0.66666,-104.42465 -0.66667,-104.42465 -15.94249,20.42465 C 626.9586,568.03513 521.38941,702.6063 503.92741,724.71221 c -1.24914,1.58133 -9.68113,1.83207 -51.76988,1.53947 l -50.2777,-0.34954 12.49814,-16 c 15.81322,-20.24393 16.00334,-20.58181 8.78832,-15.61774 -15.6329,10.75572 -44.11741,22.84198 -68.02563,28.86395 -22.84429,5.75398 -42.32225,7.92913 -71.0544,7.93479 -28.75297,0.006 -46.61924,-2.01052 -67.62714,-7.63167 l -11.62713,-3.11111 -3.14885,3.44756 c -1.73187,1.89615 -6.8882,8.09755 -11.45852,13.78089 l -8.30966,10.33333 h -46.58101 c -25.61956,0 -46.570564,-0.45 -46.557784,-1 z M 306.12136,659.88561 c 58.74169,-7.01821 99.00673,-36.52794 110.04438,-80.65013 3.11897,-12.46784 3.16372,-36.70981 0.091,-49.29649 -3.35237,-13.73217 -10.28613,-27.01702 -19.09184,-36.57928 l -7.74518,-8.41063 -30.60868,39.1432 c -16.83477,21.52876 -47.3427,60.33528 -67.79539,86.2367 -20.45269,25.90143 -36.90025,47.37997 -36.55012,47.73009 2.65728,2.65728 35.10067,3.80447 51.65583,1.82654 z m 650.63167,-3.21045 c 32.62364,-8.99664 59.59677,-36.32713 69.42507,-70.34501 4.0589,-14.04857 4.9845,-39.63615 1.9724,-54.52588 -8.6016,-42.52034 -39.81013,-73.27939 -81.1099,-79.94176 -12.42977,-2.00513 -34.11481,-1.0276 -45.6209,2.05653 -34.07371,9.13324 -60.37418,36.53328 -69.4646,72.3688 -3.77272,14.87249 -4.33719,38.04036 -1.27844,52.47146 8.47044,39.96327 39.07147,71.08875 77.88397,79.21877 10.98695,2.30142 37.74569,1.57798 48.1924,-1.30291 z m 824.82057,-2.59775 c 40.279,-8.75908 66.721,-33.229 77.355,-71.58573 3.3498,-12.0826 3.3498,-43.76313 0,-55.84573 -7.923,-28.57834 -24.4271,-49.07385 -49.5089,-61.48236 -19.8478,-9.81914 -26.7042,-10.92891 -71.6667,-11.59988 l -39.6666,-0.59193 v 101.24296 c 0,55.68363 0.45,101.7153 1,102.2926 1.8152,1.90538 72.0678,-0.16414 82.4872,-2.42993 z M 251.32591,539.90215 c 36.69017,-46.56667 66.72089,-85.05163 66.73493,-85.52213 0.0798,-2.6717 -31.04387,-5.59635 -47.97445,-4.5081 -76.18268,4.89682 -123.12955,48.09304 -119.55783,110.0062 0.95852,16.61528 3.12799,25.26355 9.64968,38.46704 5.00994,10.14288 21.40272,29.26384 23.38576,27.27777 0.57889,-0.57976 31.07174,-39.15411 67.76191,-85.72078 z m 1843.87159,62.76707 c -0.2445,-0.6781 -15.4103,-20.22185 -33.7019,-43.43055 -18.2916,-23.20869 -34.0225,-43.20388 -34.9576,-44.43374 -1.3887,-1.82644 -1.7079,6.13048 -1.7426,43.43055 l -0.042,45.66667 h 35.4445 c 21.1368,0 35.265,-0.49769 35,-1.23293 z m -827.0579,-51.4902 c 23.4679,-6.07299 36.515,-23.03551 36.5818,-47.56019 0.041,-14.87464 -3.3096,-24.36785 -11.8039,-33.44898 -13.1609,-14.07003 -24.5387,-16.87908 -68.4978,-16.91122 l -31.6666,-0.0231 v 50 50 h 33.7198 c 26.0608,0 35.5249,-0.4671 41.6667,-2.05646 z"
       id="path1" />
  </g>
</svg>
